<mxfile host="65bd71144e" modified="2020-12-17T23:44:06.961Z" agent="5.0 (Macintosh; Intel Mac OS X 10_13_6) AppleWebKit/537.36 (KHTML, like Gecko) Code/1.52.0 Chrome/83.0.4103.122 Electron/9.3.5 Safari/537.36" etag="BYOkP_pl38kdskptD_bP" version="13.10.0" type="embed">
    <diagram id="rpIpxrknLldK7d_ocUqV" name="Page-1">
        <mxGraphModel dx="901" dy="718" grid="1" gridSize="12" guides="0" tooltips="1" connect="1" arrows="1" fold="1" page="1" pageScale="1" pageWidth="850" pageHeight="1100" background="#F4F1DE" math="0" shadow="0">
            <root>
                <mxCell id="0"/>
                <mxCell id="1" parent="0"/>
                <mxCell id="2" value="Traveler" style="swimlane;fontStyle=0;childLayout=stackLayout;horizontal=1;startSize=26;horizontalStack=0;resizeParent=1;resizeParentMax=0;resizeLast=0;collapsible=1;marginBottom=0;align=center;fontSize=14;fillColor=#F2CC8F;strokeColor=#E07A5F;fontColor=#393C56;" parent="1" vertex="1">
                    <mxGeometry x="40" y="180" width="350" height="200" as="geometry"/>
                </mxCell>
                <mxCell id="3" value="name: String required" style="text;strokeColor=none;fillColor=none;spacingLeft=4;spacingRight=4;overflow=hidden;rotatable=0;points=[[0,0.5],[1,0.5]];portConstraint=eastwest;fontSize=12;fontColor=#393C56;" parent="2" vertex="1">
                    <mxGeometry y="26" width="350" height="30" as="geometry"/>
                </mxCell>
                <mxCell id="4" value="bio: String" style="text;strokeColor=none;fillColor=none;spacingLeft=4;spacingRight=4;overflow=hidden;rotatable=0;points=[[0,0.5],[1,0.5]];portConstraint=eastwest;fontSize=12;fontColor=#393C56;" parent="2" vertex="1">
                    <mxGeometry y="56" width="350" height="30" as="geometry"/>
                </mxCell>
                <mxCell id="20" value="address: { &#10;street: String, city: String, state: String, country: String&#10;}" style="text;strokeColor=none;fillColor=none;spacingLeft=4;spacingRight=4;overflow=hidden;rotatable=0;points=[[0,0.5],[1,0.5]];portConstraint=eastwest;fontSize=12;fontColor=#393C56;" parent="2" vertex="1">
                    <mxGeometry y="86" width="350" height="44" as="geometry"/>
                </mxCell>
                <mxCell id="16" value="trips: [ref Trip]" style="text;strokeColor=none;fillColor=none;spacingLeft=4;spacingRight=4;overflow=hidden;rotatable=0;points=[[0,0.5],[1,0.5]];portConstraint=eastwest;fontSize=12;fontColor=#393C56;" parent="2" vertex="1">
                    <mxGeometry y="130" width="350" height="40" as="geometry"/>
                </mxCell>
                <mxCell id="44" value="createdBy: ref User" style="text;strokeColor=none;fillColor=none;spacingLeft=4;spacingRight=4;overflow=hidden;rotatable=0;points=[[0,0.5],[1,0.5]];portConstraint=eastwest;fontSize=12;fontColor=#393C56;" parent="2" vertex="1">
                    <mxGeometry y="170" width="350" height="30" as="geometry"/>
                </mxCell>
                <mxCell id="10" value="Trip" style="swimlane;fontStyle=0;childLayout=stackLayout;horizontal=1;startSize=26;horizontalStack=0;resizeParent=1;resizeParentMax=0;resizeLast=0;collapsible=1;marginBottom=0;align=center;fontSize=14;fillColor=#F2CC8F;strokeColor=#E07A5F;fontColor=#393C56;" parent="1" vertex="1">
                    <mxGeometry x="540" y="290" width="350" height="266" as="geometry"/>
                </mxCell>
                <mxCell id="11" value="dateStart:  Date" style="text;strokeColor=none;fillColor=none;spacingLeft=4;spacingRight=4;overflow=hidden;rotatable=0;points=[[0,0.5],[1,0.5]];portConstraint=eastwest;fontSize=12;fontColor=#393C56;" parent="10" vertex="1">
                    <mxGeometry y="26" width="350" height="30" as="geometry"/>
                </mxCell>
                <mxCell id="27" value="dateEnd: Date" style="text;strokeColor=none;fillColor=none;spacingLeft=4;spacingRight=4;overflow=hidden;rotatable=0;points=[[0,0.5],[1,0.5]];portConstraint=eastwest;fontSize=12;fontColor=#393C56;" parent="10" vertex="1">
                    <mxGeometry y="56" width="350" height="30" as="geometry"/>
                </mxCell>
                <mxCell id="28" value="activities:  [String]" style="text;strokeColor=none;fillColor=none;spacingLeft=4;spacingRight=4;overflow=hidden;rotatable=0;points=[[0,0.5],[1,0.5]];portConstraint=eastwest;fontSize=12;fontColor=#393C56;" parent="10" vertex="1">
                    <mxGeometry y="86" width="350" height="30" as="geometry"/>
                </mxCell>
                <mxCell id="22" value="notes: String" style="text;strokeColor=none;fillColor=none;spacingLeft=4;spacingRight=4;overflow=hidden;rotatable=0;points=[[0,0.5],[1,0.5]];portConstraint=eastwest;fontSize=12;fontColor=#393C56;" parent="10" vertex="1">
                    <mxGeometry y="116" width="350" height="30" as="geometry"/>
                </mxCell>
                <mxCell id="24" value="location: String" style="text;strokeColor=none;fillColor=none;spacingLeft=4;spacingRight=4;overflow=hidden;rotatable=0;points=[[0,0.5],[1,0.5]];portConstraint=eastwest;fontSize=12;fontColor=#393C56;" parent="10" vertex="1">
                    <mxGeometry y="146" width="350" height="30" as="geometry"/>
                </mxCell>
                <mxCell id="25" value="budget: Number" style="text;strokeColor=none;fillColor=none;spacingLeft=4;spacingRight=4;overflow=hidden;rotatable=0;points=[[0,0.5],[1,0.5]];portConstraint=eastwest;fontSize=12;fontColor=#393C56;" parent="10" vertex="1">
                    <mxGeometry y="176" width="350" height="30" as="geometry"/>
                </mxCell>
                <mxCell id="37" value="pictures: [embed Picture]" style="text;strokeColor=none;fillColor=none;spacingLeft=4;spacingRight=4;overflow=hidden;rotatable=0;points=[[0,0.5],[1,0.5]];portConstraint=eastwest;fontSize=12;fontColor=#393C56;" parent="10" vertex="1">
                    <mxGeometry y="206" width="350" height="30" as="geometry"/>
                </mxCell>
                <mxCell id="13" value="traveler: ref Traveler " style="text;strokeColor=none;fillColor=none;spacingLeft=4;spacingRight=4;overflow=hidden;rotatable=0;points=[[0,0.5],[1,0.5]];portConstraint=eastwest;fontSize=12;fontColor=#393C56;" parent="10" vertex="1">
                    <mxGeometry y="236" width="350" height="30" as="geometry"/>
                </mxCell>
                <mxCell id="14" value="" style="edgeStyle=entityRelationEdgeStyle;fontSize=12;html=1;endArrow=ERoneToMany;exitX=1;exitY=0.5;exitDx=0;exitDy=0;entryX=0;entryY=0.068;entryDx=0;entryDy=0;entryPerimeter=0;strokeColor=#E07A5F;fontColor=#393C56;labelBackgroundColor=#F4F1DE;" parent="1" source="16" target="10" edge="1">
                    <mxGeometry width="100" height="100" relative="1" as="geometry">
                        <mxPoint x="310" y="350" as="sourcePoint"/>
                        <mxPoint x="410" y="250" as="targetPoint"/>
                    </mxGeometry>
                </mxCell>
                <mxCell id="31" value="Picture" style="swimlane;fontStyle=0;childLayout=stackLayout;horizontal=1;startSize=26;horizontalStack=0;resizeParent=1;resizeParentMax=0;resizeLast=0;collapsible=1;marginBottom=0;align=center;fontSize=14;fillColor=#F2CC8F;strokeColor=#E07A5F;fontColor=#393C56;" parent="1" vertex="1">
                    <mxGeometry x="210" y="540" width="180" height="160" as="geometry"/>
                </mxCell>
                <mxCell id="32" value="name: String" style="text;strokeColor=none;fillColor=none;spacingLeft=4;spacingRight=4;overflow=hidden;rotatable=0;points=[[0,0.5],[1,0.5]];portConstraint=eastwest;fontSize=12;fontColor=#393C56;" parent="31" vertex="1">
                    <mxGeometry y="26" width="180" height="30" as="geometry"/>
                </mxCell>
                <mxCell id="33" value="desc: String" style="text;strokeColor=none;fillColor=none;spacingLeft=4;spacingRight=4;overflow=hidden;rotatable=0;points=[[0,0.5],[1,0.5]];portConstraint=eastwest;fontSize=12;fontColor=#393C56;" parent="31" vertex="1">
                    <mxGeometry y="56" width="180" height="30" as="geometry"/>
                </mxCell>
                <mxCell id="34" value="img: {&#10;data: Buffer,&#10;contentType: String&#10;}" style="text;strokeColor=none;fillColor=none;spacingLeft=4;spacingRight=4;overflow=hidden;rotatable=0;points=[[0,0.5],[1,0.5]];portConstraint=eastwest;fontSize=12;fontColor=#393C56;" parent="31" vertex="1">
                    <mxGeometry y="86" width="180" height="74" as="geometry"/>
                </mxCell>
                <mxCell id="38" value="" style="edgeStyle=entityRelationEdgeStyle;fontSize=12;html=1;endArrow=ERoneToMany;entryX=1.008;entryY=0.101;entryDx=0;entryDy=0;entryPerimeter=0;exitX=0;exitY=0.5;exitDx=0;exitDy=0;strokeColor=#E07A5F;fontColor=#393C56;labelBackgroundColor=#F4F1DE;" parent="1" source="37" target="31" edge="1">
                    <mxGeometry width="100" height="100" relative="1" as="geometry">
                        <mxPoint x="480" y="640" as="sourcePoint"/>
                        <mxPoint x="540" y="490" as="targetPoint"/>
                    </mxGeometry>
                </mxCell>
                <mxCell id="39" value="User" style="swimlane;fontStyle=0;childLayout=stackLayout;horizontal=1;startSize=26;horizontalStack=0;resizeParent=1;resizeParentMax=0;resizeLast=0;collapsible=1;marginBottom=0;align=center;fontSize=14;fillColor=#F2CC8F;strokeColor=#E07A5F;fontColor=#393C56;" parent="1" vertex="1">
                    <mxGeometry x="540" y="90" width="250" height="116" as="geometry"/>
                </mxCell>
                <mxCell id="40" value="username: String required unique" style="text;strokeColor=none;fillColor=none;spacingLeft=4;spacingRight=4;overflow=hidden;rotatable=0;points=[[0,0.5],[1,0.5]];portConstraint=eastwest;fontSize=12;fontColor=#393C56;" parent="39" vertex="1">
                    <mxGeometry y="26" width="250" height="30" as="geometry"/>
                </mxCell>
                <mxCell id="41" value="email: String required unique" style="text;strokeColor=none;fillColor=none;spacingLeft=4;spacingRight=4;overflow=hidden;rotatable=0;points=[[0,0.5],[1,0.5]];portConstraint=eastwest;fontSize=12;fontColor=#393C56;" parent="39" vertex="1">
                    <mxGeometry y="56" width="250" height="30" as="geometry"/>
                </mxCell>
                <mxCell id="42" value="password: String required minlength 8" style="text;strokeColor=none;fillColor=none;spacingLeft=4;spacingRight=4;overflow=hidden;rotatable=0;points=[[0,0.5],[1,0.5]];portConstraint=eastwest;fontSize=12;fontColor=#393C56;" parent="39" vertex="1">
                    <mxGeometry y="86" width="250" height="30" as="geometry"/>
                </mxCell>
                <mxCell id="43" value="" style="edgeStyle=entityRelationEdgeStyle;fontSize=12;html=1;endArrow=ERmandOne;startArrow=ERmandOne;entryX=-0.007;entryY=0.139;entryDx=0;entryDy=0;entryPerimeter=0;exitX=1.004;exitY=0.061;exitDx=0;exitDy=0;exitPerimeter=0;strokeColor=#E07A5F;fontColor=#393C56;labelBackgroundColor=#F4F1DE;" parent="1" source="2" target="39" edge="1">
                    <mxGeometry width="100" height="100" relative="1" as="geometry">
                        <mxPoint x="290" y="260" as="sourcePoint"/>
                        <mxPoint x="390" y="160" as="targetPoint"/>
                    </mxGeometry>
                </mxCell>
            </root>
        </mxGraphModel>
    </diagram>
</mxfile>